<svg width="18" height="12" xmlns="http://www.w3.org/2000/svg" fill="none">

 <g>
  <title>Layer 1</title>
  <path transform="rotate(180 8.78022 6.00001)" id="svg_1" fill="#BD8D99" d="m8.09514,11.5559l-7.81283,-8.90023c-0.18085,-0.20585 -0.28048,-0.48065 -0.28048,-0.77365c0,-0.29301 0.09963,-0.5678 0.28048,-0.77365l0.57523,-0.65545c0.37482,-0.4265 0.98402,-0.4265 1.35828,0l6.56075,7.47376l6.56803,-7.48205c0.1808,-0.20585 0.4219,-0.31951 0.679,-0.31951c0.2574,0 0.4984,0.11366 0.6794,0.31951l0.5751,0.65544c0.1809,0.20602 0.2805,0.48065 0.2805,0.77366c0,0.293 -0.0996,0.5678 -0.2805,0.77365l-7.81996,8.90852c-0.18142,0.2064 -0.42365,0.3197 -0.68114,0.319c-0.2585,0.0007 -0.50058,-0.1126 -0.68186,-0.319z"/>
 </g>
</svg>