<svg width="18" height="12" viewBox="0 0 18 12" fill="none" xmlns="http://www.w3.org/2000/svg">
<path d="M8.09514 11.5559L0.282309 2.65567C0.101461 2.44982 0.00183098 2.17502 0.00183099 1.88202C0.001831 1.58901 0.101461 1.31422 0.282309 1.10837L0.857538 0.452924C1.23236 0.0264239 1.84156 0.0264239 2.21582 0.452924L8.77657 7.92668L15.3446 0.444632C15.5254 0.23878 15.7665 0.125123 16.0236 0.125123C16.281 0.125123 16.522 0.238781 16.703 0.444633L17.2781 1.10007C17.459 1.30609 17.5586 1.58072 17.5586 1.87373C17.5586 2.16673 17.459 2.44153 17.2781 2.64738L9.45814 11.5559C9.27672 11.7623 9.03449 11.8756 8.777 11.8749C8.5185 11.8756 8.27642 11.7623 8.09514 11.5559Z" fill="#BD8D99"/>
</svg>
