<svg width="40" height="42" viewBox="0 0 40 42" fill="none" xmlns="http://www.w3.org/2000/svg">
<path d="M31.1117 19.3612L13.3112 0.67097C12.8995 0.23834 12.3499 0 11.7639 0C11.1779 0 10.6283 0.23834 10.2166 0.67097L8.90573 2.04706C8.05273 2.94373 8.05273 4.40109 8.90573 5.2964L23.8532 20.9913L8.88914 36.7036C8.47744 37.1362 8.25012 37.713 8.25012 38.3279C8.25012 38.9436 8.47744 39.5203 8.88914 39.9533L10.2 41.329C10.6121 41.7617 11.1613 42 11.7473 42C12.3333 42 12.8829 41.7617 13.2946 41.329L31.1117 22.6218C31.5244 22.1878 31.7511 21.6083 31.7498 20.9923C31.7511 20.3739 31.5244 19.7948 31.1117 19.3612Z" fill="#BD8D99"/>
</svg>
