<svg width="40" height="42" viewBox="0 0 40 42" fill="none" xmlns="http://www.w3.org/2000/svg">
<path d="M8.88823 19.3612L26.6887 0.67097C27.1004 0.23834 27.65 0 28.236 0C28.8221 0 29.3716 0.23834 29.7833 0.67097L31.0942 2.04706C31.9472 2.94373 31.9472 4.40109 31.0942 5.2964L16.1467 20.9913L31.1108 36.7036C31.5225 37.1362 31.7498 37.713 31.7498 38.3279C31.7498 38.9436 31.5225 39.5203 31.1108 39.9533L29.7999 41.329C29.3879 41.7617 28.8386 42 28.2526 42C27.6666 42 27.117 41.7617 26.7053 41.329L8.88823 22.6218C8.47555 22.1878 8.24889 21.6083 8.25019 20.9923C8.24889 20.3739 8.47555 19.7948 8.88823 19.3612Z" fill="#BD8D99"/>
</svg>
